{
  "accessors": [
    {
      "bufferView": 2,
      "componentType": 5126,
      "count": 25,
      "max": [
        250,
        250,
        0
      ],
      "min": [
        -250,
        -250,
        0
      ],
      "type": "VEC3"
    },
    {
      "bufferView": 2,
      "byteOffset": 300,
      "componentType": 5126,
      "count": 25,
      "max": [
        0,
        0,
        1
      ],
      "min": [
        0,
        0,
        1
      ],
      "type": "VEC3"
    },
    {
      "bufferView": 3,
      "componentType": 5126,
      "count": 25,
      "max": [
        1,
        0,
        0,
        1
      ],
      "min": [
        1,
        0,
        0,
        1
      ],
      "type": "VEC4"
    },
    {
      "bufferView": 1,
      "componentType": 5126,
      "count": 25,
      "max": [
        1,
        1
      ],
      "min": [
        0,
        0
      ],
      "type": "VEC2"
    },
    {
      "bufferView": 0,
      "componentType": 5125,
      "count": 96,
      "max": [
        24
      ],
      "min": [
        0
      ],
      "type": "SCALAR"
    },
    {
      "bufferView": 2,
      "byteOffset": 600,
      "componentType": 5126,
      "count": 3163,
      "max": [
        60.000007629394531,
        59.991500854492188,
        84.251541137695312
      ],
      "min": [
        -59.999988555908203,
        -59.991485595703125,
        -0.05133056640625
      ],
      "type": "VEC3"
    },
    {
      "bufferView": 2,
      "byteOffset": 38556,
      "componentType": 5126,
      "count": 3163,
      "max": [
        1,
        0.9999854564666748,
        1
      ],
      "min": [
        -1,
        -0.99998921155929565,
        -1
      ],
      "type": "VEC3"
    },
    {
      "bufferView": 3,
      "byteOffset": 400,
      "componentType": 5126,
      "count": 3163,
      "max": [
        1,
        1,
        1,
        1
      ],
      "min": [
        -1,
        -1,
        -0.99999231100082397,
        -1
      ],
      "type": "VEC4"
    },
    {
      "bufferView": 1,
      "byteOffset": 200,
      "componentType": 5126,
      "count": 3163,
      "max": [
        0.99950003623962402,
        0.99509227275848389
      ],
      "min": [
        0.00050000002374872565,
        0.00050000002374872565
      ],
      "type": "VEC2"
    },
    {
      "bufferView": 1,
      "byteOffset": 25504,
      "componentType": 5126,
      "count": 3163,
      "max": [
        1.0069185495376587,
        1.0453391075134277
      ],
      "min": [
        -0.12500137090682983,
        0
      ],
      "type": "VEC2"
    },
    {
      "bufferView": 0,
      "byteOffset": 384,
      "componentType": 5125,
      "count": 11736,
      "max": [
        3162
      ],
      "min": [
        0
      ],
      "type": "SCALAR"
    },
    {
      "bufferView": 2,
      "byteOffset": 76512,
      "componentType": 5126,
      "count": 464,
      "max": [
        40.342830657958984,
        42.416534423828125,
        80.975578308105469
      ],
      "min": [
        -40.507183074951172,
        -42.416519165039062,
        75.566864013671875
      ],
      "type": "VEC3"
    },
    {
      "bufferView": 2,
      "byteOffset": 82080,
      "componentType": 5126,
      "count": 464,
      "max": [
        0.0097273411229252815,
        0.99988639354705811,
        0.99926513433456421
      ],
      "min": [
        -0.010677468962967396,
        -0.99988621473312378,
        -0.99856859445571899
      ],
      "type": "VEC3"
    },
    {
      "bufferView": 3,
      "byteOffset": 51008,
      "componentType": 5126,
      "count": 464,
      "max": [
        0.99999970197677612,
        0.99927240610122681,
        0.99935716390609741,
        1
      ],
      "min": [
        -1,
        -0.99927246570587158,
        -0.99964261054992676,
        -1
      ],
      "type": "VEC4"
    },
    {
      "bufferView": 1,
      "byteOffset": 50808,
      "componentType": 5126,
      "count": 464,
      "max": [
        0.98441791534423828,
        0.90148758888244629
      ],
      "min": [
        0.00050000002374872565,
        0.0056003332138061523
      ],
      "type": "VEC2"
    },
    {
      "bufferView": 1,
      "byteOffset": 54520,
      "componentType": 5126,
      "count": 464,
      "max": [
        2.1929678916931152,
        2.0135664939880371
      ],
      "min": [
        -82.64007568359375,
        -3.3951506614685059
      ],
      "type": "VEC2"
    },
    {
      "bufferView": 0,
      "byteOffset": 47328,
      "componentType": 5125,
      "count": 2712,
      "max": [
        463
      ],
      "min": [
        0
      ],
      "type": "SCALAR"
    }
  ],
  "asset": {
    "extras": {
      "author": "MADE.COM (https://sketchfab.com/made-it)",
      "license": "CC-BY-NC-4.0 (http://creativecommons.org/licenses/by-nc/4.0/)",
      "source": "https://sketchfab.com/3d-models/belgrave-extending-dining-table-dark-oak-31035435a88940f3bf2884a06732b66b",
      "title": "Belgrave Extending Dining Table, Dark Oak"
    },
    "generator": "Sketchfab-5.11.0",
    "version": "2.0"
  },
  "bufferViews": [
    {
      "buffer": 0,
      "byteLength": 58176,
      "byteOffset": 0,
      "name": "floatBufferViews",
      "target": 34963
    },
    {
      "buffer": 0,
      "byteLength": 58232,
      "byteOffset": 58176,
      "byteStride": 8,
      "name": "floatBufferViews",
      "target": 34962
    },
    {
      "buffer": 0,
      "byteLength": 87648,
      "byteOffset": 116408,
      "byteStride": 12,
      "name": "floatBufferViews",
      "target": 34962
    },
    {
      "buffer": 0,
      "byteLength": 58432,
      "byteOffset": 204056,
      "byteStride": 16,
      "name": "floatBufferViews",
      "target": 34962
    }
  ],
  "buffers": [
    {
      "byteLength": 262488,
      "uri": "scene.bin"
    }
  ],
  "images": [
    {
      "uri": "textures/FLOOR_baseColor.png"
    },
    {
      "uri": "textures/STEEL_metallicRoughness.png"
    },
    {
      "uri": "textures/WOOD_metallicRoughness.png"
    },
    {
      "uri": "textures/WOOD_baseColor.jpeg"
    }
  ],
  "materials": [
    {
      "alphaMode": "BLEND",
      "doubleSided": true,
      "emissiveFactor": [
        0,
        0,
        0
      ],
      "name": "FLOOR",
      "pbrMetallicRoughness": {
        "baseColorFactor": [
          0,
          0,
          0,
          0.56269054880000002
        ],
        "baseColorTexture": {
          "index": 0,
          "texCoord": 0
        },
        "metallicFactor": 0,
        "roughnessFactor": 1
      }
    },
    {
      "doubleSided": true,
      "emissiveFactor": [
        0,
        0,
        0
      ],
      "name": "WOOD",
      "occlusionTexture": {
        "index": 2,
        "strength": 1,
        "texCoord": 0
      },
      "pbrMetallicRoughness": {
        "baseColorFactor": [
          1,
          1,
          1,
          1
        ],
        "baseColorTexture": {
          "index": 3,
          "texCoord": 0
        },
        "metallicFactor": 0,
        "metallicRoughnessTexture": {
          "index": 2,
          "texCoord": 1
        },
        "roughnessFactor": 0.52610518289999997
      }
    },
    {
      "doubleSided": true,
      "emissiveFactor": [
        0,
        0,
        0
      ],
      "name": "STEEL",
      "occlusionTexture": {
        "index": 1,
        "strength": 0.95293445119999998,
        "texCoord": 0
      },
      "pbrMetallicRoughness": {
        "baseColorFactor": [
          0.15900528750000001,
          0.16625128489999999,
          0.17172344719999999,
          1
        ],
        "metallicFactor": 0.90415396339999998,
        "roughnessFactor": 0.2578125
      }
    }
  ],
  "meshes": [
    {
      "name": "Plane001_FLOOR_0",
      "primitives": [
        {
          "attributes": {
            "NORMAL": 1,
            "POSITION": 0,
            "TANGENT": 2,
            "TEXCOORD_0": 3
          },
          "indices": 4,
          "material": 0,
          "mode": 4
        }
      ]
    },
    {
      "name": "Belgrave_Extending_Table_WOOD_0",
      "primitives": [
        {
          "attributes": {
            "NORMAL": 6,
            "POSITION": 5,
            "TANGENT": 7,
            "TEXCOORD_0": 8,
            "TEXCOORD_1": 9
          },
          "indices": 10,
          "material": 1,
          "mode": 4
        }
      ]
    },
    {
      "name": "Belgrave_Extending_Table_STEEL_0",
      "primitives": [
        {
          "attributes": {
            "NORMAL": 12,
            "POSITION": 11,
            "TANGENT": 13,
            "TEXCOORD_0": 14,
            "TEXCOORD_1": 15
          },
          "indices": 16,
          "material": 2,
          "mode": 4
        }
      ]
    }
  ],
  "nodes": [
    {
      "children": [
        1
      ],
      "name": "RootNode (gltf orientation matrix)",
      "rotation": [
        -0.70710678118654746,
        -0,
        -0,
        0.70710678118654757
      ]
    },
    {
      "children": [
        2
      ],
      "matrix": [
        0.87209528684616089,
        -0.48933607339859009,
        0,
        0,
        0.48933607339859009,
        0.87209528684616089,
        0,
        0,
        0,
        0,
        1,
        0,
        -3.3161999454023317e-05,
        5.6632899941178039e-05,
        0,
        1
      ],
      "name": "RootNode (model correction matrix)"
    },
    {
      "children": [
        3
      ],
      "matrix": [
        1,
        0,
        0,
        0,
        0,
        0,
        1,
        0,
        0,
        -1,
        0,
        0,
        0,
        0,
        0,
        1
      ],
      "name": "d563b9cbdcaa46d4a03557ed373293e4.fbx"
    },
    {
      "children": [
        4,
        6
      ],
      "name": "RootNode"
    },
    {
      "children": [
        5
      ],
      "matrix": [
        0.66811561584472656,
        0,
        0,
        0,
        0,
        1.483514679644863e-16,
        -0.66811561584472656,
        0,
        0,
        1,
        2.2204460492503131e-16,
        0,
        0,
        0,
        0,
        1
      ],
      "name": "Plane001"
    },
    {
      "mesh": 0,
      "name": "Plane001_FLOOR_0"
    },
    {
      "children": [
        7,
        8
      ],
      "matrix": [
        0.99999999999998468,
        -3.9704669402545328e-23,
        1.7484555314694902e-07,
        0,
        1.7484555314694902e-07,
        3.3306690738754696e-16,
        -0.99999999999998468,
        0,
        -3.9704669402545328e-23,
        1,
        3.3306690738754696e-16,
        0,
        0,
        0,
        2.1047928385087289e-05,
        1
      ],
      "name": "Belgrave_Extending_Table"
    },
    {
      "mesh": 1,
      "name": "Belgrave_Extending_Table_WOOD_0"
    },
    {
      "mesh": 2,
      "name": "Belgrave_Extending_Table_STEEL_0"
    }
  ],
  "samplers": [
    {
      "magFilter": 9729,
      "minFilter": 9987,
      "wrapS": 10497,
      "wrapT": 10497
    }
  ],
  "scene": 0,
  "scenes": [
    {
      "name": "OSG_Scene",
      "nodes": [
        0
      ]
    }
  ],
  "textures": [
    {
      "sampler": 0,
      "source": 0
    },
    {
      "sampler": 0,
      "source": 1
    },
    {
      "sampler": 0,
      "source": 2
    },
    {
      "sampler": 0,
      "source": 3
    }
  ]
}

